<svg xmlns="http://www.w3.org/2000/svg" width="24" height="19.8" viewBox="0 0 24 19.8"><g fill="#126bff"><path d="M22.28.13a1.49,1.49,0,0,1,.93.1A1.41,1.41,0,0,1,24,1.71c-.85,3.81-3.32,15.12-3.73,17a1.58,1.58,0,0,1-1.12,1.19,1.64,1.64,0,0,1-1.33-.23c-2.39-1.72-4.77-3.45-7.16-5.16a1.16,1.16,0,0,1-.63-1,1.23,1.23,0,0,1,.52-.92c.59-.53,4.67-4.49,6.16-5.9.39-.42.85-.77,1.23-1.2a.38.38,0,0,0-.17-.6c-.16-.08-.33,0-.47.09L7.16,11.35a2.32,2.32,0,0,1-1.37.43,2.89,2.89,0,0,1-1.12-.24C3.55,11.14.68,10.19.41,10a1,1,0,0,1-.32-1.2,1.15,1.15,0,0,1,.73-.58C7.36,5.77,21.66.35,22.28.13Z" transform="translate(0-.1)" stroke="none"/></g></svg>
