<svg xmlns="http://www.w3.org/2000/svg" width="24" height="24" viewBox="0 0 24 24"><g><g fill="#126bff" stroke="none"><circle cx="9.21" cy="13.2" r="1.2"/><path d="M14.51 16.07A4 4 0 0 1 12 16.8a3.9 3.9 0 0 1 -2.49 -.75A.34 .34 0 1 0 9 16.5a4.62 4.62 0 0 0 3 .93 4.62 4.62 0 0 0 3 -.93 .34 .34 0 1 0 -.47 -.48"/><path d="M12,0A12,12,0,1,0,24,12,12,12,0,0,0,12,0Zm7,13.59a4.68,4.68,0,0,1,0,.53c0,2.68-3.14,4.87-7,4.87s-7-2.17-7-4.86a4.68,4.68,0,0,1,0-.53,1.64,1.64,0,0,1-.54-.32,1.75,1.75,0,0,1,2.4-2.55,8.53,8.53,0,0,1,4.68-1.5l.88-4.17h0a.37.37,0,0,1,.45-.29h0l3,.59A1.2,1.2,0,1,1,18,6.59a1.2,1.2,0,0,1-2.22-.5L13.2,5.58l-.78,3.75A8.49,8.49,0,0,1,17,10.83a1.74,1.74,0,1,1,2,2.81Z"/><path d="M14.76,12a1.2,1.2,0,1,0,0,2.4,1.23,1.23,0,0,0,0-2.4"/></g></g></svg>
