<svg xmlns="http://www.w3.org/2000/svg" width="24" height="24" viewBox="0 0 24 24"><g fill="#126bff"><path d="M8,12a4,4,0,1,1,4,4,4,4,0,0,1-4-4M6,12a6,6,0,1,0,6-6,6,6,0,0,0-6,6M17,5.5A1.5,1.5,0,1,0,18.5,4,1.5,1.5,0,0,0,17,5.5ZM7.07,21.93a6.78,6.78,0,0,1-2.26-.42,4,4,0,0,1-2.32-2.32,6.78,6.78,0,0,1-.42-2.26C2,15.64,2,15.26,2,12s0-3.64.07-4.93a7.06,7.06,0,0,1,.42-2.26A4,4,0,0,1,4.81,2.49a6.78,6.78,0,0,1,2.26-.42C8.36,2,8.74,2,12,2s3.64,0,4.93.07a7.06,7.06,0,0,1,2.26.42,4,4,0,0,1,2.32,2.32,6.78,6.78,0,0,1,.42,2.26C22,8.36,22,8.74,22,12s0,3.64-.07,4.93a6.78,6.78,0,0,1-.42,2.26,4,4,0,0,1-2.32,2.32,6.78,6.78,0,0,1-2.26.42C15.64,22,15.26,22,12,22s-3.64,0-4.93-.07M7.05.07A8.76,8.76,0,0,0,4.14.63,5.82,5.82,0,0,0,2,2,5.82,5.82,0,0,0,.63,4.14,8.71,8.71,0,0,0,.07,7.05C0,8.33,0,8.74,0,12S0,15.67.07,17a8.76,8.76,0,0,0,.56,2.91A5.82,5.82,0,0,0,2,22a5.82,5.82,0,0,0,2.12,1.39,8.76,8.76,0,0,0,2.91.56C8.33,24,8.74,24,12,24s3.67,0,4.95-.07a8.76,8.76,0,0,0,2.91-.56,6.22,6.22,0,0,0,3.51-3.51A8.76,8.76,0,0,0,23.93,17C24,15.67,24,15.26,24,12s0-3.67-.07-4.95a8.76,8.76,0,0,0-.56-2.91A5.82,5.82,0,0,0,22,2,5.82,5.82,0,0,0,19.86.63,8.76,8.76,0,0,0,17,.07C15.67,0,15.26,0,12,0S8.33,0,7.05.07" stroke="none"/></g></svg>
