<svg xmlns="http://www.w3.org/2000/svg" width="22" height="24" viewBox="0 0 22 24"><g fill="#126bff"><path d="M19.45,0H2.4A2.5,2.5,0,0,0,0,2.55V18.6A2.37,2.37,0,0,0,2.4,21H16.5L16,18.9,22,24V2.55A2.63,2.63,0,0,0,19.45,0m-5,15.75a7,7,0,0,1-.75-.9,3.94,3.94,0,0,0,2.1-1.35,6.08,6.08,0,0,1-1.35.75,7.53,7.53,0,0,0-1.8.3,11,11,0,0,1-3.15,0A5.37,5.37,0,0,1,7.85,14a2.13,2.13,0,0,1-.9-.3H6.8c-.3-.3-.45-.3-.45-.3a3.94,3.94,0,0,0,2.1,1.35c-.3.45-.75,1.05-.75,1.05A4.19,4.19,0,0,1,4.1,13.8a16.85,16.85,0,0,1,1.65-7,4.94,4.94,0,0,1,3.3-1.2l.15.15A8.93,8.93,0,0,0,6.05,7.2a6.31,6.31,0,0,1,.75-.3,9.77,9.77,0,0,1,2.7-.6h.15a6.46,6.46,0,0,1,2.4,0,8.53,8.53,0,0,1,3.6,1.2,7.29,7.29,0,0,0-3-1.5l.15-.15a6.16,6.16,0,0,1,3.3,1.2,16.85,16.85,0,0,1,1.65,7.05c.3-.3-.75,1.5-3.3,1.65m-5.7-5.7a1.23,1.23,0,0,0-1.2,1.35,1.32,1.32,0,0,0,1.2,1.35A1.23,1.23,0,0,0,10,11.4a1.15,1.15,0,0,0-1.2-1.35m4.5,0A1.34,1.34,0,0,0,11.9,11.4a1.32,1.32,0,0,0,1.2,1.35,1.23,1.23,0,0,0,1.2-1.35,1.12,1.12,0,0,0-1.05-1.35" stroke="none"/></g></svg>
