<svg xmlns="http://www.w3.org/2000/svg" width="24" height="23.28" viewBox="0 0 24 23.28"><g fill="#126bff"><path d="M11.93.36A12,12,0,0,0,0,12.28,12.05,12.05,0,0,0,8.2,23.61c.6.15.74-.3.74-.59V20.93c-3.28.74-4-1.49-4-1.49a4.07,4.07,0,0,0-1.34-1.79c-1.05-.75.15-.75.15-.75a2.61,2.61,0,0,1,1.79,1.2,2.43,2.43,0,0,0,3.42,1,3.39,3.39,0,0,1,.75-1.64c-2.68-.3-5.37-1.34-5.37-6a4.25,4.25,0,0,1,1.2-3.13,3.71,3.71,0,0,1,.14-3.13s1-.3,3.28,1.19a9.61,9.61,0,0,1,3-.45,9.59,9.59,0,0,1,3,.45C17.14,5,18.19,5.28,18.19,5.28a4.54,4.54,0,0,1,.15,3.13,4.83,4.83,0,0,1,1.19,3.13c0,4.62-2.83,5.66-5.52,5.81a3.84,3.84,0,0,1,.9,2.39V23c0,.29.15.74.89.59A12.05,12.05,0,0,0,24,12.28,12.19,12.19,0,0,0,11.93.36Z" transform="translate(0-.36)" stroke="none"/></g></svg>
