<svg xmlns="http://www.w3.org/2000/svg" width="24" height="19" viewBox="0 0 24 19"><g><g fill="#126bff" stroke="none"><path d="M24,5.67c.1,1.31-.13,2.89-1,3-1.44.12-.69-1.44-.67-2.38a4.63,4.63,0,0,0-4.63-4.61c-.65,0-2.18.43-1.94-.93.1-.6.62-.59,1.14-.66A6.1,6.1,0,0,1,24,5.67Z"/><path d="M17.6,8.83c1.68.9,3.69,1.35,3.36,4-.62,4.93-11.06,8.24-17.58,4.62C1.6,16.48-.26,15,0,12.13.28,9.64,2,7.71,3.65,6.06A11.86,11.86,0,0,1,9.22,2.7c2.48-.61,3.22,1.42,2.55,3.43C13.21,6,16.26,4.46,17.6,6c.6.68.37,1.89,0,2.83Zm-1.81,6.33a4,4,0,0,0,1.08-2.57c0-4.39-7.64-5.37-11.81-3-4.75,2.74-2.74,7.66,3.09,8.05,3.08.2,6.18-.87,7.64-2.51Z"/><path d="M20,7.58c-1,.06-.61-.66-.67-1.52a1.82,1.82,0,0,0-.87-1.32c-.76-.35-1.95.26-1.95-.79,0-.77.69-.69,1.08-.72C21.09,3,21.31,7.49,20,7.58Z"/><path d="m12.84 12.26c1.43 4.25-6 6.22-7.38 2.57-.91-2.44 1.28-4.38 3.54-4.61a3.46 3.46 0 0 1 3.82 2m-3.4.78a.51 .51 0 0 0 .94 -.27c-.07-.48-.95-.41-.94.27m-1.21 2.23c1.26-.29 1.42-2.61-.47-2.18-1.58.37-1.28 2.59.47 2.18"/></g></g></svg>
